<svg width="87" height="500" viewBox="0 0 87 500" fill="none" xmlns="http://www.w3.org/2000/svg">
<path opacity="0.2" fill-rule="evenodd" clip-rule="evenodd" d="M50.2659 10.7204C52.1411 9.17026 54.6409 10.9681 53.5981 15.066C52.481 19.4542 48.3511 19.5085 46.0187 19.4215C46.2521 19.4011 47.0039 15.377 47.2612 14.7689C48.0202 12.9751 49.1131 11.6751 50.2659 10.7204ZM28.6748 90.6776C28.0125 91.6217 28.6209 90.7661 28.6748 90.6776V90.6776ZM52.4453 31.0945C53.5666 32.5092 53.6193 35.0087 52.7025 36.7013C51.6108 38.7163 49.6186 38.6447 48.1315 38.4497C47.4588 38.3613 43.8669 37.8895 44.7187 36.9183C44.6532 36.9592 44.5163 37.0584 44.3699 37.1933C44.291 37.6686 44.2081 38.1422 44.1218 38.6137C44.1429 38.6341 44.1609 38.6559 44.1835 38.6762C44.159 38.6585 44.1419 38.6394 44.1203 38.6215C43.2551 43.3342 42.0241 47.8218 40.4129 52.0206C41.0153 51.6285 41.6394 51.3315 42.2722 51.199C44.1462 50.8061 48.0876 53.2071 45.9902 57.3283C43.9791 61.279 40.8514 57.0449 38.5705 56.4626C36.3564 61.5627 33.9155 66.4507 31.3576 71.1755C31.5142 71.2564 31.6516 71.425 31.7303 71.6877C32.7562 70.8278 33.8253 69.5979 34.7746 69.2644C36.1444 68.7838 38.9531 68.4908 39.9876 70.514C41.2601 73.0019 39.8947 75.0247 38.3902 75.5033C36.2088 76.1974 33.3539 74.4403 31.2554 73.2532C31.0153 73.3235 30.7533 73.2078 30.5968 72.8908C30.5504 72.8658 30.5041 72.8412 30.4589 72.8172C27.8686 77.519 25.1793 82.0657 22.5063 86.5128C22.5347 86.5104 22.5632 86.5075 22.5928 86.5049C23.29 85.7497 24.0377 85.1298 24.848 84.8048C26.7226 84.049 28.9279 84.0434 30.4483 86.2813C31.9627 88.5096 32.4983 92.4084 30.93 94.9133C27.791 99.9273 23.1718 88.5049 21.5893 88.0293C18.873 92.5012 16.001 96.6796 13.0839 100.774C13.4151 100.607 13.7547 100.484 14.1057 100.429C16.9651 99.9747 23.6746 105.757 20.1638 111.454C17.1044 116.418 13.5681 106.871 11.1048 103.533C8.35593 107.349 5.59211 111.139 2.90581 115.076C4.37047 114.433 5.78578 114.337 7.35545 115.119C8.97964 115.929 11.6003 117.952 10.5722 121.574C9.52666 125.257 6.3795 123.584 4.74041 122.417C3.84643 121.78 2.05431 119.629 0.48052 118.724C-3.80621 125.406 -7.51974 132.766 -10.3321 141.434C-12.0878 146.846 -13.4207 152.627 -14.3594 158.569C-14.9586 162.362 -16.1389 168.732 -15.9045 173.668C-17.0259 163.789 -14.9892 151.922 -12.7963 143.089C-10.7801 134.967 -7.76418 127.836 -4.23222 121.417C-5.1167 117.018 -12.5709 110.68 -8.11225 106.589C-5.74462 104.427 -3.3214 108.01 -2.80515 111.807C-2.45058 114.416 -2.99303 117.696 -3.56843 120.229C-2.45736 118.272 -1.30238 116.378 -0.112274 114.547C1.53243 112.016 3.2165 109.558 4.91665 107.132C2.11759 102.79 -0.528896 90.3752 3.2265 88.3412C8.772 85.3461 6.09709 102.286 5.70933 105.461C5.59948 105.472 5.5139 105.417 5.45097 105.3C5.48205 105.59 5.51815 105.901 5.56189 106.215C8.81594 101.594 12.1182 97.0649 15.3117 92.3342C15.0243 91.9835 14.5674 90.6429 14.2083 89.9294C13.3979 88.321 12.6225 86.6408 12.0561 84.7589C11.1613 81.7851 10.2988 77.041 12.6738 75.2893C15.2566 73.3808 16.4821 78.7462 16.4991 81.9475C16.5107 84.1616 16.1448 86.2652 15.9539 88.4356C15.8943 89.1124 16.1223 92.1632 15.5642 90.8512C15.5904 91.3351 15.5941 91.6856 15.581 91.934C16.1543 91.0805 16.7232 90.2177 17.2886 89.3487C17.2624 89.239 17.2431 89.1195 17.2387 88.9808C17.2087 88.0265 17.7905 87.6584 18.1984 87.9376C18.9443 86.7671 19.683 85.5818 20.4086 84.3731C21.9463 81.8123 23.5063 79.1784 25.0556 76.4885C24.7198 76.0122 24.8536 75.3523 24.5396 74.8467C24.2261 74.3422 23.6083 74.0636 23.2396 73.5951C22.3123 72.416 21.5435 70.6977 20.9877 69.0064C20.07 66.2119 18.8847 60.3491 21.5685 59.0146C24.3348 57.6369 25.7369 63.2802 25.9137 66.8091C25.9481 67.4927 25.6361 73.6532 25.3981 75.8903C28.2648 70.8912 31.0844 65.7047 33.6392 60.4281C32.8651 60.4169 30.6712 57.8002 30.2277 57.086C29.1456 55.3442 27.4259 51.4946 29.3245 49.4552C31.0126 47.6462 33.0919 50.2624 33.8128 52.8062C33.9313 53.225 34.3483 57.1241 34.3804 58.8736C35.4378 56.6361 36.4465 54.3854 37.385 52.1275C38.0109 50.6264 38.5958 49.0856 39.1431 47.5122C39.0115 47.3891 38.8878 47.1744 38.7709 46.9074C35.9566 46.1211 32.3704 38.8737 35.6771 36.3483C37.2515 35.1475 38.9578 37.6221 39.7282 39.6486C39.8861 40.0632 40.1413 42.1481 40.349 43.7926C41.9238 38.5802 43.1277 33.0624 44.0444 27.4051C43.7994 27.3049 43.592 26.9961 43.5648 26.4646C42.1988 25.1795 41.12 24.1095 40.1669 21.6369C39.5747 20.1012 38.5085 16.5923 40.2501 15.7381C42.5164 14.6267 43.9381 20.3399 44.1226 23.1544C44.1441 23.4811 44.143 24.4313 44.1353 25.3021C44.214 25.2843 44.2935 25.2863 44.3715 25.309C44.893 21.806 45.3095 18.258 45.641 14.7041C44.4044 14.048 44.1938 3.32389 45.0178 1.79618C46.8595 -1.62453 48.1566 3.3135 48.0575 5.92401C47.9405 9.00207 47.0949 11.8027 46.0882 14.2884C45.9802 14.5516 46.011 14.5389 45.9831 14.1723C45.9676 14.3535 45.9309 14.4873 45.8764 14.5842C45.9278 16.2043 46.0284 17.863 45.9794 19.2967C45.8389 23.4026 45.5479 27.5324 45.1261 31.5856C45.0235 32.5714 44.906 33.5492 44.7744 34.5185C45.7689 33.1194 47.1096 31.8759 47.6342 31.4869C48.9957 30.4785 51.0938 29.3891 52.4453 31.0945ZM-16.1272 173.278C-16.0615 174.597 -15.8664 175.801 -15.4821 176.788C-15.7642 175.66 -15.9757 174.486 -16.1272 173.278Z" fill="#FF0045"/>
<g opacity="0.5">
<path fill-rule="evenodd" clip-rule="evenodd" d="M33.18 145.158C35.4243 139.823 39.589 126.274 42.7477 124.368C44.7822 123.14 44.189 135.841 44.2142 138.263C44.312 147.632 43.7648 156.942 43.0892 166.233C41.8719 182.989 37.8914 197.912 32.4318 212.173C29.6225 219.511 26.3273 226.938 21.7633 231.517C19.6625 233.625 17.1348 233.979 15.0601 235.795C12.6438 237.91 13.9597 236.2 12.8708 240.398C11.3586 246.226 10.8749 253.744 10.1753 259.963C6.96272 288.508 -0.814787 439.409 0.533534 468.445C0.653287 471.019 -1.49933 471.634 -1.60679 468.493C-2.17796 451.833 2.76449 336.468 5.25804 298.74C7.75158 261.012 10.2749 227.682 12.8051 214.629C15.8746 198.793 21.4182 179.75 26.0329 164.982C28.1764 158.122 30.5128 151.497 33.18 145.158Z" fill="#FFCEDC"/>
<path fill-rule="evenodd" clip-rule="evenodd" d="M49.8377 330.196C55.6776 323.048 61.9988 336.538 56.7143 343.687C53.7929 347.638 50.7388 346.232 49.0194 342.94C47.9033 345.208 46.8586 347.579 45.8548 349.583C42.7964 355.687 39.9058 361.936 37.1432 368.332C31.4044 381.618 26.4863 395.655 21.3441 409.435C16.2694 423.035 11.2353 436.705 6.63571 450.65C2.73918 462.465 -2.4544 476.364 -3.78845 489.316C-1.76434 461.846 5.91623 435.443 15.0625 411.227C24.1343 387.209 34.5452 360.979 48.5917 342.025C47.1621 338.52 47.1225 333.517 49.8377 330.196Z" fill="#FF87A7"/>
<path fill-rule="evenodd" clip-rule="evenodd" d="M-48.082 58.1481C-35.7721 93.7381 -25.6564 132.833 -19.1247 172.43C-15.1672 196.421 -12.3996 221.04 -9.64977 245.481C-5.39218 283.324 -1.36498 321.165 -0.219433 359.681C0.933061 398.42 3.21204 443.101 -4.39693 480.413C-0.596214 442.531 -4.21475 402.209 -4.85545 364.092C-5.16162 345.896 -6.04886 327.878 -7.21274 309.788C-8.34218 292.239 -10.1874 274.775 -11.9056 257.364C-12.7426 248.885 -13.6217 240.419 -14.5167 231.957C-14.7839 229.432 -14.8967 221.941 -15.8573 220.216C-16.8242 218.48 -21.7571 217.773 -23.3058 216.499C-26.4243 213.933 -29.3577 210.289 -31.9539 206.439C-36.9308 199.057 -41.2604 189.413 -44.6777 179.905C-52.5844 157.906 -55.7455 131.06 -55.5857 105.583C-55.555 100.636 -50.7832 47.3698 -52.6996 46.6363C-52.5842 46.411 -52.4751 46.1784 -52.3722 45.9364C-50.9212 49.9863 -49.4975 54.0636 -48.082 58.1481Z" fill="#DD043E"/>
<path fill-rule="evenodd" clip-rule="evenodd" d="M84.7816 186.507C84.9715 186.05 86.2077 182.874 85.5852 183.077C86.8527 182.663 83.8419 186.58 87 184.177C85.5005 186.538 86.3659 189.604 86.3859 192.782C86.4186 197.941 85.9008 203.057 85.318 208.105C84.3971 216.085 83.0251 223.843 81.0338 231.265C76.6936 247.439 69.3237 263.009 60.5743 273.121C56.2549 278.114 52.0218 279.813 47.0955 282.112C43.9839 283.564 43.7372 286.247 42.0855 291.281C38.6469 301.765 35.2695 312.212 32.237 323.05C28.6159 335.992 25.1007 348.948 21.7849 362.117C10.6145 406.478 1.52274 452.437 -3.25195 500C-3.36885 471.971 0.520489 443.104 5.42652 416.388C9.00026 396.924 13.6526 378.16 18.6148 359.587C19.8172 355.087 21.6394 349.299 22.1501 344.332C22.5076 340.851 21.4145 337.504 20.914 333.837C18.9628 319.558 19.1024 303.562 20.8159 289.207C22.7051 273.378 28.1686 266.032 37.4108 263.79C40.7909 262.969 45.087 263.27 48.1864 260.867C51.5631 258.251 52.956 249.651 54.8761 244.13C60.0335 229.301 66.1612 215.079 73.1975 202.584C75.1457 199.124 77.2409 195.932 79.4637 192.973C80.8654 191.106 83.8264 188.806 84.7816 186.507Z" fill="#FF87A7"/>
</g>
</svg>
