<svg width="59" height="500" viewBox="0 0 59 500" fill="none" xmlns="http://www.w3.org/2000/svg">
<path opacity="0.2" fill-rule="evenodd" clip-rule="evenodd" d="M112.266 10.7204C114.141 9.17023 116.641 10.968 115.598 15.066C114.481 19.4542 110.351 19.5084 108.019 19.4215C108.252 19.4011 109.004 15.377 109.261 14.7689C110.02 12.9751 111.113 11.6751 112.266 10.7204ZM90.6748 90.6776C90.0125 91.6216 90.6209 90.7661 90.6748 90.6776V90.6776ZM114.445 31.0944C115.567 32.5092 115.619 35.0086 114.703 36.7012C113.611 38.7163 111.619 38.6446 110.131 38.4496C109.459 38.3613 105.867 37.8895 106.719 36.9183C106.653 36.9592 106.516 37.0584 106.37 37.1932C106.291 37.6685 106.208 38.1422 106.122 38.6137C106.143 38.634 106.161 38.6559 106.183 38.6762C106.159 38.6585 106.142 38.6394 106.12 38.6215C105.255 43.3342 104.024 47.8218 102.413 52.0205C103.015 51.6284 103.639 51.3314 104.272 51.1989C106.146 50.8061 110.088 53.207 107.99 57.3282C105.979 61.279 102.851 57.0449 100.571 56.4626C98.3564 61.5627 95.9155 66.4507 93.3576 71.1755C93.5142 71.2563 93.6516 71.425 93.7303 71.6877C94.7562 70.8277 95.8253 69.5979 96.7746 69.2644C98.1444 68.7838 100.953 68.4907 101.988 70.514C103.26 73.0019 101.895 75.0247 100.39 75.5033C98.2088 76.1974 95.3539 74.4403 93.2554 73.2532C93.0153 73.3235 92.7533 73.2077 92.5968 72.8908C92.5504 72.8658 92.5041 72.8411 92.4589 72.8172C89.8686 77.519 87.1793 82.0657 84.5063 86.5128C84.5347 86.5103 84.5632 86.5074 84.5928 86.5048C85.29 85.7496 86.0377 85.1298 86.848 84.8048C88.7226 84.049 90.9279 84.0434 92.4483 86.2813C93.9627 88.5095 94.4983 92.4084 92.93 94.9132C89.791 99.9273 85.1718 88.5049 83.5893 88.0292C80.873 92.5011 78.001 96.6795 75.0839 100.774C75.4151 100.607 75.7547 100.484 76.1057 100.429C78.9651 99.9747 85.6746 105.757 82.1638 111.454C79.1044 116.418 75.5681 106.871 73.1048 103.533C70.3559 107.349 67.5921 111.139 64.9058 115.076C66.3705 114.433 67.7858 114.337 69.3554 115.119C70.9796 115.929 73.6003 117.952 72.5722 121.574C71.5267 125.257 68.3795 123.584 66.7404 122.417C65.8464 121.78 64.0543 119.629 62.4805 118.724C58.1938 125.406 54.4803 132.766 51.6679 141.434C49.9122 146.846 48.5793 152.627 47.6406 158.569C47.0414 162.362 45.8611 168.732 46.0955 173.668C44.9741 163.789 47.0108 151.922 49.2037 143.089C51.2199 134.967 54.2358 127.836 57.7678 121.417C56.8833 117.018 49.4291 110.68 53.8877 106.589C56.2554 104.427 58.6786 108.01 59.1948 111.807C59.5494 114.416 59.007 117.696 58.4316 120.229C59.5426 118.272 60.6976 116.378 61.8877 114.547C63.5324 112.016 65.2165 109.558 66.9167 107.132C64.1176 102.79 61.4711 90.3751 65.2265 88.3411C70.772 85.3461 68.0971 102.286 67.7093 105.461C67.5995 105.472 67.5139 105.417 67.451 105.3C67.4821 105.59 67.5182 105.901 67.5619 106.215C70.8159 101.594 74.1182 97.0648 77.3117 92.3342C77.0243 91.9835 76.5674 90.6428 76.2083 89.9294C75.3979 88.321 74.6225 86.6408 74.0561 84.7589C73.1613 81.785 72.2988 77.041 74.6738 75.2893C77.2566 73.3808 78.4821 78.7462 78.4991 81.9475C78.5107 84.1616 78.1448 86.2652 77.9539 88.4355C77.8943 89.1124 78.1223 92.1631 77.5642 90.8512C77.5904 91.3351 77.5941 91.6855 77.581 91.934C78.1543 91.0805 78.7232 90.2177 79.2886 89.3487C79.2624 89.239 79.2431 89.1194 79.2387 88.9808C79.2087 88.0264 79.7905 87.6583 80.1984 87.9375C80.9443 86.767 81.683 85.5818 82.4086 84.3731C83.9463 81.8123 85.5063 79.1784 87.0556 76.4885C86.7198 76.0122 86.8536 75.3523 86.5396 74.8466C86.2261 74.3422 85.6083 74.0636 85.2396 73.595C84.3123 72.4159 83.5435 70.6976 82.9877 69.0064C82.07 66.2119 80.8847 60.3491 83.5685 59.0146C86.3348 57.6368 87.7369 63.2802 87.9137 66.8091C87.9481 67.4927 87.6361 73.6532 87.3981 75.8903C90.2648 70.8912 93.0844 65.7046 95.6392 60.428C94.8651 60.4169 92.6712 57.8002 92.2277 57.086C91.1456 55.3441 89.4259 51.4946 91.3245 49.4551C93.0126 47.6462 95.0919 50.2624 95.8128 52.8061C95.9313 53.225 96.3483 57.1241 96.3804 58.8736C97.4378 56.6361 98.4465 54.3854 99.385 52.1275C100.011 50.6264 100.596 49.0856 101.143 47.5122C101.012 47.3891 100.888 47.1744 100.771 46.9073C97.9566 46.1211 94.3704 38.8737 97.6771 36.3483C99.2515 35.1474 100.958 37.622 101.728 39.6486C101.886 40.0632 102.141 42.1481 102.349 43.7926C103.924 38.5802 105.128 33.0623 106.044 27.4051C105.799 27.3049 105.592 26.996 105.565 26.4645C104.199 25.1795 103.12 24.1094 102.167 21.6369C101.575 20.1012 100.509 16.5922 102.25 15.7381C104.516 14.6267 105.938 20.3399 106.123 23.1544C106.144 23.4811 106.143 24.4313 106.135 25.3021C106.214 25.2843 106.294 25.2863 106.371 25.3089C106.893 21.806 107.31 18.258 107.641 14.7041C106.404 14.0479 106.194 3.32386 107.018 1.79615C108.86 -1.62456 110.157 3.31347 110.058 5.92398C109.941 9.00204 109.095 11.8027 108.088 14.2884C107.98 14.5516 108.011 14.5388 107.983 14.1723C107.968 14.3535 107.931 14.4872 107.876 14.5841C107.928 16.2043 108.028 17.863 107.979 19.2967C107.839 23.4025 107.548 27.5324 107.126 31.5856C107.023 32.5714 106.906 33.5491 106.774 34.5185C107.769 33.1193 109.11 31.8758 109.634 31.4869C110.996 30.4784 113.094 29.389 114.445 31.0944ZM45.8728 173.278C45.9385 174.597 46.1336 175.801 46.5179 176.788C46.2358 175.66 46.0243 174.486 45.8728 173.278Z" fill="#C1DEE2"/>
<g opacity="0.5">
<path fill-rule="evenodd" clip-rule="evenodd" d="M111.838 330.196C117.678 323.048 123.999 336.538 118.714 343.687C115.793 347.638 112.739 346.232 111.019 342.94C109.903 345.208 108.859 347.579 107.855 349.582C104.796 355.687 101.906 361.936 99.1432 368.332C93.4044 381.618 88.4863 395.655 83.3441 409.435C78.2694 423.035 73.2353 436.705 68.6357 450.65C64.7392 462.465 59.5456 476.364 58.2115 489.316C60.2357 461.846 67.9162 435.443 77.0625 411.227C86.1343 387.209 96.5452 360.979 110.592 342.025C109.162 338.52 109.122 333.517 111.838 330.196Z" fill="#C1DEE2"/>
<path fill-rule="evenodd" clip-rule="evenodd" d="M1.02174 263.202C4.28973 264.267 9.62957 276.592 12.3234 281.288C15.5248 286.868 18.4292 292.815 21.167 299.047C27.0609 312.461 32.332 326.722 36.8142 341.594C44.1213 365.838 49.9753 390.726 54.2238 417.127C56.8244 433.288 58.5083 450.038 59.5062 466.671C59.6946 469.808 61.6674 493.993 58.8248 494.645C56.2681 495.232 57.0578 476.281 56.9344 473.703C55.5402 444.62 51.3635 416.323 45.5537 388.911C44.2882 382.94 43.1126 375.626 41.0888 370.252C39.6314 366.382 41.0784 367.731 38.5172 366.267C36.318 365.008 33.8124 365.316 31.5604 363.775C26.6681 360.43 22.7508 353.937 19.3171 347.406C12.644 334.713 7.35601 320.981 4.59958 304.717C3.0705 295.699 1.66536 286.629 0.885593 277.332C0.683881 274.929 -1.08314 262.516 1.02174 263.202Z" fill="#FBB5C8"/>
<path fill-rule="evenodd" clip-rule="evenodd" d="M13.918 58.148C26.2279 93.7381 36.3436 132.833 42.8753 172.43C46.8328 196.421 49.6004 221.04 52.3502 245.481C56.6078 283.324 60.635 321.165 61.7806 359.681C62.9331 398.42 65.212 443.101 57.6031 480.413C61.4038 442.531 57.7852 402.209 57.1446 364.092C56.8384 345.896 55.9511 327.878 54.7873 309.788C53.6578 292.239 51.8126 274.775 50.0944 257.364C49.2574 248.885 48.3783 240.419 47.4833 231.957C47.2161 229.432 47.1033 221.941 46.1427 220.216C45.1758 218.48 40.2429 217.773 38.6942 216.499C35.5757 213.933 32.6423 210.289 30.0461 206.439C25.0692 199.057 20.7396 189.413 17.3223 179.905C9.41564 157.906 6.25454 131.06 6.41431 105.583C6.44501 100.636 11.2168 47.3697 9.3004 46.6362C9.41578 46.4109 9.52493 46.1783 9.62784 45.9364C11.0788 49.9862 12.5025 54.0636 13.918 58.148Z" fill="#DD2F5E"/>
<path fill-rule="evenodd" clip-rule="evenodd" d="M146.782 186.507C146.972 186.05 148.208 182.874 147.585 183.077C148.853 182.663 145.842 186.58 149 184.177C147.501 186.537 148.366 189.604 148.386 192.782C148.419 197.94 147.901 203.057 147.318 208.105C146.397 216.085 145.025 223.843 143.034 231.265C138.694 247.439 131.324 263.009 122.574 273.121C118.255 278.114 114.022 279.813 109.096 282.112C105.984 283.564 105.737 286.247 104.086 291.281C100.647 301.765 97.2695 312.212 94.237 323.05C90.6159 335.992 87.1007 348.948 83.7849 362.117C72.6145 406.478 63.5227 452.437 58.7481 500C58.6311 471.971 62.5205 443.104 67.4265 416.388C71.0003 396.924 75.6526 378.16 80.6148 359.587C81.8172 355.087 83.6394 349.299 84.1501 344.332C84.5076 340.851 83.4145 337.504 82.914 333.837C80.9628 319.558 81.1024 303.562 82.8159 289.207C84.7051 273.378 90.1686 266.032 99.4108 263.789C102.791 262.969 107.087 263.27 110.186 260.867C113.563 258.251 114.956 249.651 116.876 244.13C122.033 229.301 128.161 215.079 135.197 202.584C137.146 199.124 139.241 195.932 141.464 192.973C142.865 191.106 145.826 188.806 146.782 186.507Z" fill="#89C5CC"/>
</g>
</svg>
