<svg width="208" height="200" viewBox="0 0 208 200" fill="none" xmlns="http://www.w3.org/2000/svg">
<rect x="8" width="200" height="200" fill="white"/>
<path d="M156.004 43.7504H57.4747C50.9418 43.7504 44.6765 45.7258 40.057 49.2421C35.4376 52.7584 32.8424 57.5276 32.8424 62.5004V137.5C32.8424 142.473 35.4376 147.242 40.057 150.759C44.6765 154.275 50.9418 156.25 57.4747 156.25H156.004C158.181 156.25 160.27 155.592 161.81 154.42C163.349 153.248 164.215 151.658 164.215 150V50.0004C164.215 48.3428 163.349 46.7531 161.81 45.5809C160.27 44.4088 158.181 43.7504 156.004 43.7504ZM57.4747 143.75C55.2971 143.75 53.2086 143.092 51.6688 141.92C50.129 140.748 49.2639 139.158 49.2639 137.5C49.2639 135.843 50.129 134.253 51.6688 133.081C53.2086 131.909 55.2971 131.25 57.4747 131.25H147.793V143.75H57.4747Z" fill="#D61C4E"/>
</svg>
