<svg width="374" height="383" viewBox="0 0 374 383" fill="none" xmlns="http://www.w3.org/2000/svg">
<ellipse cx="187" cy="266.5" rx="187" ry="116.5" fill="#FFD4DF"/>
<path d="M256.485 90.0838C256.485 90.0838 247.703 85.4233 248.175 59.9419L230.405 56.9617C230.405 56.9617 233.664 79.6835 225.177 87.2196L256.485 90.0838Z" fill="#EFBAA5"/>
<g opacity="0.15">
<path d="M228.51 82.3389L242.414 69.5865L230.944 69.8452C230.854 74.1635 230.029 78.4006 228.51 82.3389V82.3389Z" fill="black"/>
</g>
<path d="M255.111 52.5818C252.693 60.1273 247.737 67.0191 241.19 68.9043C234.018 71.1881 226.587 71.5725 219.546 70.0239C200.709 66.48 212.021 19.1513 222.556 10.7506C233.091 2.34989 258.789 10.7607 259.58 26.5642C259.99 34.7377 257.412 45.3964 255.111 52.5818Z" fill="#EFBAA5"/>
<path d="M216.11 10.4395C216.837 9.50058 217.764 8.76639 218.798 8.31131C228.083 4.05572 244.085 3.80473 251.246 7.00579C259.553 10.7205 269.268 19.832 263.365 39.1135C263.116 39.926 262.863 40.7065 262.607 41.4758C265.456 41.2208 268.249 41.8191 270.678 43.2053C273.108 44.5915 275.081 46.712 276.382 49.3346C277.683 51.9571 278.26 54.9805 278.052 58.0736C277.844 61.1667 276.858 64.2101 275.201 66.8704C273.545 69.5307 271.282 71.7053 268.662 73.156C266.041 74.6067 263.163 75.2775 260.343 75.0949C257.523 74.9123 254.87 73.8834 252.675 72.1209C250.48 70.3583 248.826 67.9301 247.896 65.1023C246.402 66.2107 244.825 67.1702 243.188 67.9676C242.034 68.549 241.87 67.9636 241.707 66.6613C241.143 62.0899 242.677 44.3695 245.689 31.6839L225.223 28.9365L223.404 17.3905L218.695 28.3133L211.683 27.6439C211.705 21.4814 211.823 14.5064 216.11 10.4395Z" fill="#402A08"/>
<path d="M228.82 45.4851C229.695 45.5686 230.526 44.8583 230.678 43.8986C230.829 42.9388 230.244 42.0932 229.369 42.0097C228.495 41.9262 227.663 42.6366 227.512 43.5963C227.36 44.556 227.946 45.4017 228.82 45.4851Z" fill="#0F1011"/>
<path d="M216.509 43.168C217.383 43.2515 218.215 42.5411 218.366 41.5814C218.518 40.6217 217.932 39.776 217.058 39.6926C216.183 39.6091 215.352 40.3195 215.2 41.2792C215.049 42.2389 215.635 43.0845 216.509 43.168Z" fill="#0F1011"/>
<path d="M214.625 37.4662C214.427 37.4488 214.251 37.3461 214.134 37.1805C214.018 37.0149 213.971 36.8002 214.004 36.5835C214.037 36.3667 214.147 36.1658 214.31 36.0248C214.473 35.8839 214.675 35.8145 214.873 35.8319L219.076 36.1747C219.271 36.1966 219.444 36.2996 219.561 36.4626C219.677 36.6256 219.728 36.8362 219.702 37.0513C219.686 37.1587 219.651 37.2635 219.6 37.3596C219.548 37.4558 219.479 37.5415 219.399 37.6118C219.319 37.6822 219.228 37.7358 219.131 37.7695C219.035 37.8033 218.935 37.8166 218.837 37.8087L214.635 37.4672L214.625 37.4662Z" fill="#0F1011"/>
<path d="M233.009 40.9242C232.95 40.9185 232.893 40.9057 232.838 40.8861L228.876 39.3976C228.784 39.3645 228.7 39.3111 228.63 39.2407C228.559 39.1702 228.504 39.0841 228.466 38.9872C228.429 38.8904 228.41 38.7848 228.412 38.6765C228.413 38.5683 228.434 38.4595 228.473 38.3566C228.513 38.2537 228.571 38.1586 228.643 38.077C228.715 37.9953 228.8 37.9287 228.893 37.8809C228.986 37.8331 229.086 37.8052 229.185 37.7987C229.285 37.7922 229.384 37.8073 229.475 37.843L233.437 39.3302C233.606 39.394 233.743 39.5253 233.821 39.6992C233.899 39.8731 233.913 40.0776 233.86 40.274C233.808 40.4704 233.692 40.6451 233.535 40.7649C233.378 40.8847 233.191 40.9414 233.009 40.9242V40.9242Z" fill="#0F1011"/>
<path d="M238.172 46.9948C238.161 48.9429 238.851 50.8407 240.093 52.2778C241.334 53.7148 243.027 54.5757 244.805 54.6743C246.583 54.7728 248.303 54.1011 249.595 52.8044C250.886 51.5077 251.643 49.6902 251.704 47.7449C251.737 46.7682 251.59 45.7882 251.273 44.8632C250.955 43.9382 250.472 43.087 249.853 42.3605C249.235 41.634 248.493 41.047 247.672 40.6344C246.851 40.2217 245.968 39.992 245.075 39.9587C240.256 39.9603 238.251 42.9031 238.172 46.9948Z" fill="#EFBAA5"/>
<g opacity="0.15">
<path d="M222.182 53.1563C222.128 53.1511 222.075 53.137 222.026 53.1146L218.419 51.4653C218.349 51.4332 218.288 51.3847 218.239 51.3231C218.189 51.2614 218.154 51.188 218.134 51.1076C218.114 51.0273 218.111 50.9418 218.124 50.8569C218.138 50.772 218.167 50.6896 218.211 50.6152L221.683 44.7297C221.766 44.5904 221.893 44.4877 222.038 44.4443C222.182 44.4009 222.332 44.4203 222.453 44.4983C222.575 44.5763 222.659 44.7064 222.687 44.8601C222.715 45.0137 222.684 45.1784 222.602 45.3177L219.481 50.6062L222.529 52C222.647 52.0547 222.739 52.1551 222.788 52.2829C222.838 52.4108 222.843 52.5577 222.801 52.6972C222.759 52.8368 222.674 52.9597 222.561 53.0439C222.448 53.1281 222.314 53.168 222.183 53.1564L222.182 53.1563Z" fill="black"/>
</g>
<path d="M229.963 57.4499C229.963 57.4499 224.012 57.5684 220.162 55.6062C220.162 55.6062 219.528 59.8343 224.086 60.6918C228.644 61.5493 229.963 57.4499 229.963 57.4499Z" fill="white"/>
<path d="M186.351 277.248C184.259 276.864 160.662 272.44 160.662 272.44L164.554 247.429C164.554 247.429 188.08 251.841 190.166 252.224L186.351 277.248Z" fill="#EFBAA5"/>
<path d="M147.202 301.239C147.102 301.913 147.129 302.602 147.283 303.263C147.437 303.924 147.713 304.543 148.094 305.082C148.476 305.621 148.954 306.068 149.5 306.394C150.046 306.721 150.647 306.921 151.267 306.981C152.125 307.064 152.987 306.876 153.751 306.44C154.516 306.003 155.151 305.336 155.581 304.517L168.914 277.023C169.17 276.49 169.318 275.903 169.348 275.301C169.379 274.7 169.29 274.098 169.089 273.537C167.168 269.067 166.605 264.039 167.482 259.192C168.307 255.443 170.074 252.023 172.583 249.324C172.827 249.09 173.004 248.786 173.096 248.446C173.187 248.106 173.189 247.745 173.1 247.404C173.012 247.063 172.837 246.757 172.596 246.522C172.355 246.286 172.058 246.13 171.739 246.072L158.759 243.687C158.376 243.617 157.985 243.63 157.607 243.726C157.228 243.823 156.871 244 156.556 244.248C156.24 244.496 155.972 244.81 155.767 245.172C155.563 245.534 155.425 245.937 155.362 246.357L147.202 301.239Z" fill="#C1D8ED"/>
<path d="M259.389 209.6C269.18 210.048 279.152 210.362 289.125 210.633L304.112 210.995L319.082 211.291L320.574 211.32C326.757 211.448 332.665 214.145 337.109 218.866C341.552 223.587 344.2 229.982 344.518 236.761C344.835 243.54 342.8 250.199 338.821 255.396C334.843 260.593 329.217 263.941 323.079 264.764L175.14 284.483L169.116 236.496L316.395 211.539L320.393 265.012L305.193 266.091L290.003 267.099C279.859 267.743 269.713 268.344 259.385 268.81L259.389 209.6Z" fill="#194775"/>
<path d="M296.707 266.739C276.282 263.476 274.245 262.872 273.575 262.679L279.585 238.179C279.518 238.158 279.43 238.132 279.322 238.106C280.996 238.508 291.376 240.248 300.032 241.63L296.707 266.739Z" fill="#EFBAA5"/>
<path d="M322.219 288.549C322.434 289.189 322.525 289.871 322.489 290.552C322.452 291.234 322.288 291.899 322.007 292.507C321.725 293.116 321.333 293.654 320.853 294.088C320.374 294.523 319.818 294.844 319.221 295.032V295.032C318.392 295.293 317.514 295.288 316.688 295.019C315.862 294.749 315.123 294.227 314.558 293.512L296.715 269.296C296.373 268.826 296.127 268.281 295.994 267.697C295.861 267.113 295.844 266.505 295.945 265.913C297.058 261.125 296.742 256.07 295.042 251.494C293.584 247.985 291.258 244.997 288.328 242.869C288.048 242.691 287.821 242.43 287.672 242.115C287.523 241.8 287.458 241.445 287.486 241.092C287.514 240.739 287.633 240.401 287.829 240.12C288.026 239.838 288.291 239.623 288.594 239.501L300.922 234.455C301.286 234.306 301.672 234.238 302.06 234.253C302.447 234.269 302.828 234.368 303.181 234.546C303.533 234.723 303.851 234.975 304.114 235.287C304.378 235.6 304.583 235.966 304.718 236.365L322.219 288.549Z" fill="#C1D8ED"/>
<path d="M226.539 264.455C220.341 263.876 214.144 263.458 207.948 263.065C201.753 262.703 195.557 262.341 189.364 262.099L180.074 261.706L170.785 261.413C164.592 261.185 158.402 261.092 152.211 260.963L154.356 212.137C165.946 213.916 177.551 215.551 189.153 217.225C200.755 218.9 212.369 220.443 223.981 222.01L241.409 224.265L258.85 226.41C270.483 227.783 282.118 229.146 293.777 230.27L288.661 278.395C277.079 276.541 265.471 274.927 253.863 273.32L236.441 271L219.007 268.789C207.378 267.379 195.752 265.948 184.114 264.642C172.476 263.336 160.836 261.997 149.185 260.799C143.598 260.222 138.415 257.351 134.673 252.76C130.931 248.169 128.906 242.197 129.003 236.038C129.101 229.878 131.313 223.986 135.198 219.541C139.083 215.095 144.353 212.423 149.956 212.06L151.334 211.974C157.515 211.575 163.698 211.214 169.878 210.719L179.149 210.023L188.418 209.228C194.597 208.717 200.774 208.082 206.953 207.454C213.129 206.793 219.305 206.107 225.479 205.26L226.539 264.455Z" fill="#194775"/>
<path d="M281.881 202.188L285.139 262.245L191.037 261.032L198.14 207.861L281.881 202.188Z" fill="#194775"/>
<path d="M191.461 211.906C196.072 223.542 286.696 228.375 287.907 207.907C288.677 194.882 278.22 183.512 278.22 158.127C278.22 132.741 299.498 111.198 282.162 92.1675C277.13 86.6458 268.445 83.0814 257.856 83.0693C257.064 89.8477 219.573 89.8719 219.287 83.2264C217.856 83.2506 216.744 83.2748 216.05 83.311C179.528 85.0388 195.577 119.788 195.929 153.306C196.358 192.526 186.705 199.92 191.461 211.906Z" fill="#DD2F5E"/>
<path d="M219.287 83.2264C219.573 89.8719 222.865 99.6467 233.024 100.384C246.563 101.362 257.064 89.8477 257.857 83.0693H257.824C244.494 83.0693 227.058 83.0935 219.287 83.2264Z" fill="#EFBAA5"/>
<path d="M311.302 198.549C308.466 198.551 305.722 197.449 303.556 195.439L265.079 159.758L278.912 141.784L265.283 110.641L286.917 99.2322L322.118 179.672C322.997 181.68 323.398 183.9 323.283 186.124C323.168 188.349 322.541 190.505 321.461 192.391C320.38 194.276 318.881 195.831 317.105 196.908C315.328 197.985 313.332 198.549 311.302 198.549V198.549Z" fill="#DD2F5E"/>
<path d="M155.082 206.826C153.05 206.823 151.054 206.233 149.296 205.114C147.539 203.995 146.081 202.387 145.069 200.452C144.058 198.518 143.53 196.325 143.537 194.094C143.544 191.864 144.086 189.675 145.11 187.748L196.197 91.5405L216.168 104.319L190.791 152.096L192.914 153.614L164.774 201.06C163.724 202.832 162.288 204.287 160.595 205.294C158.902 206.301 157.007 206.828 155.082 206.826V206.826Z" fill="#DD2F5E"/>
<path d="M227.996 174.205C246.565 153.823 267.321 166.872 267.321 166.872V104.541C240.804 97.2082 227.996 112.484 227.996 112.484C227.996 112.484 212.572 96.7998 187.891 108.207V171.081C187.891 171.081 199.316 163.477 210.716 166.732C222.115 169.987 227.996 174.205 227.996 174.205Z" fill="#194775"/>
<path d="M278.13 144.768L270.261 156.488C270.261 156.488 251.404 153.915 249.419 136.027C249.192 133.973 249.996 127.272 254.012 129.035C259.726 131.545 263.545 135.293 268.288 140.5C267.084 138.13 265.612 134.784 266.561 134.173C269.053 132.563 275.768 142.274 278.13 144.768Z" fill="#EFBAA5"/>
<path d="M193.769 153.98L181.155 142.936C183.432 138.695 186.593 133.029 188.596 133.802C189.631 134.213 188.772 137.801 188.002 140.387C191.744 134.273 195.123 128.824 200.407 125.972C204.282 123.87 205.988 129.803 206.131 131.869C206.901 143.71 199.14 150.645 193.769 153.98Z" fill="#EFBAA5"/>
<path d="M197.006 156.819L164.126 202.057L146.053 186.228L178.932 140.991L181.155 142.936L193.77 153.98L197.006 156.819Z" fill="#DD2F5E"/>
<path d="M280.566 139.631L265.078 159.756L303.556 195.436L319.044 175.311L280.566 139.631Z" fill="#DD2F5E"/>
<path d="M83.5935 286.363H148.228V265.919H83.5935V286.363Z" fill="#194775"/>
<path d="M82.4824 245.524H147.117V225.079H82.4824V245.524Z" fill="#C1D8ED"/>
<path d="M105.649 286.363H174V265.919H105.649V286.363Z" fill="#D61C4E"/>
<g opacity="0.62">
<path d="M111.229 286.363H114.546V265.919H111.229V286.363Z" fill="#C1D8ED"/>
</g>
<g opacity="0.62">
<path d="M117.864 286.363H121.181V265.919H117.864V286.363Z" fill="#C1D8ED"/>
</g>
<path d="M166.164 282.735C168.77 282.735 170.883 279.783 170.883 276.142C170.883 272.502 168.77 269.55 166.164 269.55C163.557 269.55 161.445 272.502 161.445 276.142C161.445 279.783 163.557 282.735 166.164 282.735Z" fill="#F3F5FD"/>
<path d="M104.539 245.524H172.89V225.079H104.539V245.524Z" fill="#DEE8F5"/>
<path d="M120.791 240.919H168.488V229.685H120.791V240.919Z" fill="#F3F5FD"/>
<g opacity="0.62">
<path d="M110.118 245.524H116.397V225.079H110.118V245.524Z" fill="#C1D8ED"/>
</g>
<path d="M142.956 245.5H78.3219V265.944H142.956V245.5Z" fill="#D61C4E"/>
<path d="M168.729 245.5H100.377V265.944H168.729V245.5Z" fill="#78A9DB"/>
<path d="M163.149 245.5H159.832V265.944H163.149V245.5Z" fill="#DEE8F5"/>
<path d="M156.514 245.5H153.196V265.944H156.514V245.5Z" fill="#DEE8F5"/>
<path d="M108.214 262.314C110.821 262.314 112.934 259.363 112.934 255.722C112.934 252.081 110.821 249.13 108.214 249.13C105.608 249.13 103.495 252.081 103.495 255.722C103.495 259.363 105.608 262.314 108.214 262.314Z" fill="#DEE8F5"/>
<path d="M117.911 260.733H148.083V250.711H117.911V260.733Z" fill="#DEE8F5"/>
<path d="M79.2716 225.284H143.906V204.84H79.2716V225.284Z" fill="#EC678A"/>
<path d="M78.1605 184.444H142.795V164H78.1605V184.444Z" fill="#EC678A"/>
<path d="M101.328 225.284H169.679V204.84H101.328V225.284Z" fill="#C1D8ED"/>
<g opacity="0.62">
<path d="M106.907 225.284H110.224V204.84H106.907V225.284Z" fill="#194775"/>
</g>
<g opacity="0.62">
<path d="M113.543 225.284H116.86V204.84H113.543V225.284Z" fill="#194775"/>
</g>
<path d="M161.842 221.656C164.449 221.656 166.562 218.704 166.562 215.063C166.562 211.422 164.449 208.471 161.842 208.471C159.236 208.471 157.123 211.422 157.123 215.063C157.123 218.704 159.236 221.656 161.842 221.656Z" fill="#DD043E"/>
<path d="M100.217 184.444H168.568V164H100.217V184.444Z" fill="#78A9DB"/>
<path d="M116.469 179.84H164.167V168.606H116.469V179.84Z" fill="#F3F5FD"/>
<g opacity="0.62">
<path d="M105.796 184.444H112.074V164H105.796V184.444Z" fill="#EC678A"/>
</g>
<path d="M138.635 184.42H74V204.865H138.635V184.42Z" fill="#78A9DB"/>
<path d="M164.407 184.42H96.0554V204.865H164.407V184.42Z" fill="#E4D9F4"/>
<path d="M158.827 184.42H155.51V204.865H158.827V184.42Z" fill="#FF87A7"/>
<path d="M152.192 184.42H148.874V204.865H152.192V184.42Z" fill="#FF87A7"/>
<path d="M103.892 201.235C106.499 201.235 108.612 198.283 108.612 194.643C108.612 191.002 106.499 188.05 103.892 188.05C101.286 188.05 99.1729 191.002 99.1729 194.643C99.1729 198.283 101.286 201.235 103.892 201.235Z" fill="#FF87A7"/>
<path d="M113.589 199.654H143.761V189.632H113.589V199.654Z" fill="#FF87A7"/>
</svg>
